<svg xmlns="http://www.w3.org/2000/svg" viewBox="0 0 64 64" role="img" aria-label="BUVO logo">
  <rect width="64" height="64" rx="14" fill="#FFD35A"/>
  <path fill="#163D2A" d="M18 14h17.8c4.6 0 8.2 1 10.7 3.1 2.6 2 3.9 4.9 3.9 8.5 0 2-.5 3.8-1.6 5.4a10 10 0 0 1-4.4 3.4 10.7 10.7 0 0 1 5.2 3.7 10 10 0 0 1 1.8 6c0 4-1.3 7.1-4 9.3-2.6 2.2-6.4 3.3-11.3 3.3H18V14Zm10.3 16.7h7.1c3 0 4.5-1.3 4.5-3.9 0-1.5-.4-2.6-1.2-3.2-.8-.7-2.1-1-3.9-1h-6.5v8.1Zm0 8.1V48h7.5c1.7 0 3-.4 3.9-1.2.9-.8 1.4-1.9 1.4-3.4 0-3.1-1.6-4.6-4.7-4.6h-8.1Z"/>
</svg>
